<svg width="130" height="30" viewBox="0 0 130 30" fill="none" xmlns="http://www.w3.org/2000/svg">
<g clip-path="url(#clip0_845_329)">
<path d="M4.576 13.628C4.576 12.38 4.834 11.27 5.35 10.298C5.878 9.314 6.622 8.552 7.582 8.012C8.542 7.46 9.646 7.184 10.894 7.184C12.478 7.184 13.81 7.61 14.89 8.462C15.97 9.302 16.666 10.448 16.978 11.9H13.18C12.952 11.42 12.634 11.054 12.226 10.802C11.83 10.55 11.368 10.424 10.84 10.424C10.024 10.424 9.37 10.718 8.878 11.306C8.398 11.882 8.158 12.656 8.158 13.628C8.158 14.612 8.398 15.398 8.878 15.986C9.37 16.562 10.024 16.85 10.84 16.85C11.368 16.85 11.83 16.724 12.226 16.472C12.634 16.22 12.952 15.854 13.18 15.374H16.978C16.666 16.826 15.97 17.978 14.89 18.83C13.81 19.67 12.478 20.09 10.894 20.09C9.646 20.09 8.542 19.82 7.582 19.28C6.622 18.728 5.878 17.966 5.35 16.994C4.834 16.01 4.576 14.888 4.576 13.628ZM22.1046 7.31V14.672C22.1046 15.356 22.2606 15.884 22.5726 16.256C22.8966 16.628 23.3826 16.814 24.0306 16.814C24.6786 16.814 25.1646 16.628 25.4886 16.256C25.8246 15.872 25.9926 15.344 25.9926 14.672V7.31H29.5206V14.672C29.5206 15.836 29.2746 16.832 28.7826 17.66C28.2906 18.476 27.6186 19.094 26.7666 19.514C25.9266 19.922 24.9906 20.126 23.9586 20.126C22.9266 20.126 22.0026 19.922 21.1866 19.514C20.3826 19.094 19.7466 18.476 19.2786 17.66C18.8226 16.844 18.5946 15.848 18.5946 14.672V7.31H22.1046Z" fill="#A635EC"/>
<path d="M49.7224 7.31V20H46.1944V12.998L43.8004 20H40.8484L38.4364 12.944V20H34.9084V7.31H39.1744L42.3604 15.554L45.4744 7.31H49.7224ZM56.4287 20.126C55.4207 20.126 54.5147 19.916 53.7107 19.496C52.9187 19.076 52.2947 18.476 51.8387 17.696C51.3827 16.916 51.1547 15.998 51.1547 14.942C51.1547 13.898 51.3827 12.986 51.8387 12.206C52.3067 11.426 52.9367 10.826 53.7287 10.406C54.5327 9.986 55.4387 9.776 56.4467 9.776C57.4547 9.776 58.3547 9.986 59.1467 10.406C59.9507 10.826 60.5807 11.426 61.0367 12.206C61.5047 12.986 61.7387 13.898 61.7387 14.942C61.7387 15.986 61.5047 16.904 61.0367 17.696C60.5807 18.476 59.9507 19.076 59.1467 19.496C58.3427 19.916 57.4367 20.126 56.4287 20.126ZM56.4287 17.066C56.9207 17.066 57.3287 16.886 57.6527 16.526C57.9887 16.154 58.1567 15.626 58.1567 14.942C58.1567 14.258 57.9887 13.736 57.6527 13.376C57.3287 13.016 56.9267 12.836 56.4467 12.836C55.9667 12.836 55.5647 13.016 55.2407 13.376C54.9167 13.736 54.7547 14.258 54.7547 14.942C54.7547 15.638 54.9107 16.166 55.2227 16.526C55.5347 16.886 55.9367 17.066 56.4287 17.066ZM69.78 9.812C70.944 9.812 71.868 10.202 72.552 10.982C73.236 11.75 73.578 12.794 73.578 14.114V20H70.05V14.582C70.05 14.006 69.9 13.556 69.6 13.232C69.3 12.896 68.898 12.728 68.394 12.728C67.866 12.728 67.452 12.896 67.152 13.232C66.852 13.556 66.702 14.006 66.702 14.582V20H63.174V9.902H66.702V11.342C67.014 10.886 67.434 10.52 67.962 10.244C68.49 9.956 69.096 9.812 69.78 9.812ZM79.2399 9.776C79.9239 9.776 80.5179 9.914 81.0219 10.19C81.5379 10.466 81.9339 10.838 82.2099 11.306V9.902H85.7379V19.892C85.7379 20.84 85.5579 21.692 85.1979 22.448C84.8379 23.216 84.2739 23.828 83.5059 24.284C82.7499 24.74 81.7899 24.968 80.6259 24.968C79.0659 24.968 77.8179 24.602 76.8819 23.87C75.9459 23.138 75.4119 22.142 75.2799 20.882H78.7539C78.8259 21.206 79.0059 21.458 79.2939 21.638C79.5819 21.818 79.9539 21.908 80.4099 21.908C81.6099 21.908 82.2099 21.236 82.2099 19.892V18.596C81.9339 19.064 81.5379 19.436 81.0219 19.712C80.5179 19.988 79.9239 20.126 79.2399 20.126C78.4359 20.126 77.7039 19.916 77.0439 19.496C76.3959 19.076 75.8799 18.476 75.4959 17.696C75.1239 16.904 74.9379 15.986 74.9379 14.942C74.9379 13.898 75.1239 12.986 75.4959 12.206C75.8799 11.426 76.3959 10.826 77.0439 10.406C77.7039 9.986 78.4359 9.776 79.2399 9.776ZM82.2099 14.942C82.2099 14.294 82.0299 13.784 81.6699 13.412C81.3219 13.04 80.8899 12.854 80.3739 12.854C79.8459 12.854 79.4079 13.04 79.0599 13.412C78.7119 13.772 78.5379 14.282 78.5379 14.942C78.5379 15.59 78.7119 16.106 79.0599 16.49C79.4079 16.862 79.8459 17.048 80.3739 17.048C80.8899 17.048 81.3219 16.862 81.6699 16.49C82.0299 16.118 82.2099 15.602 82.2099 14.942ZM92.4462 20.126C91.4382 20.126 90.5322 19.916 89.7282 19.496C88.9362 19.076 88.3122 18.476 87.8562 17.696C87.4002 16.916 87.1722 15.998 87.1722 14.942C87.1722 13.898 87.4002 12.986 87.8562 12.206C88.3242 11.426 88.9542 10.826 89.7462 10.406C90.5502 9.986 91.4562 9.776 92.4642 9.776C93.4722 9.776 94.3722 9.986 95.1642 10.406C95.9682 10.826 96.5982 11.426 97.0542 12.206C97.5222 12.986 97.7562 13.898 97.7562 14.942C97.7562 15.986 97.5222 16.904 97.0542 17.696C96.5982 18.476 95.9682 19.076 95.1642 19.496C94.3602 19.916 93.4542 20.126 92.4462 20.126ZM92.4462 17.066C92.9382 17.066 93.3462 16.886 93.6702 16.526C94.0062 16.154 94.1742 15.626 94.1742 14.942C94.1742 14.258 94.0062 13.736 93.6702 13.376C93.3462 13.016 92.9442 12.836 92.4642 12.836C91.9842 12.836 91.5822 13.016 91.2582 13.376C90.9342 13.736 90.7722 14.258 90.7722 14.942C90.7722 15.638 90.9282 16.166 91.2402 16.526C91.5522 16.886 91.9542 17.066 92.4462 17.066ZM102.72 6.68V20H99.1916V6.68H102.72ZM106.511 8.966C105.887 8.966 105.383 8.798 104.999 8.462C104.627 8.114 104.441 7.682 104.441 7.166C104.441 6.638 104.627 6.2 104.999 5.852C105.383 5.504 105.887 5.33 106.511 5.33C107.123 5.33 107.615 5.504 107.987 5.852C108.371 6.2 108.563 6.638 108.563 7.166C108.563 7.682 108.371 8.114 107.987 8.462C107.615 8.798 107.123 8.966 106.511 8.966ZM108.257 9.902V20H104.729V9.902H108.257ZM109.69 14.942C109.69 13.898 109.876 12.986 110.248 12.206C110.632 11.426 111.148 10.826 111.796 10.406C112.456 9.986 113.188 9.776 113.992 9.776C114.688 9.776 115.288 9.914 115.792 10.19C116.296 10.466 116.686 10.838 116.962 11.306V9.902H120.49V20H116.962V18.596C116.686 19.064 116.29 19.436 115.774 19.712C115.27 19.988 114.676 20.126 113.992 20.126C113.188 20.126 112.456 19.916 111.796 19.496C111.148 19.076 110.632 18.476 110.248 17.696C109.876 16.904 109.69 15.986 109.69 14.942ZM116.962 14.942C116.962 14.294 116.782 13.784 116.422 13.412C116.074 13.04 115.642 12.854 115.126 12.854C114.598 12.854 114.16 13.04 113.812 13.412C113.464 13.772 113.29 14.282 113.29 14.942C113.29 15.59 113.464 16.106 113.812 16.49C114.16 16.862 114.598 17.048 115.126 17.048C115.642 17.048 116.074 16.862 116.422 16.49C116.782 16.118 116.962 15.602 116.962 14.942Z" fill="black"/>
</g>
<rect x="0.5" y="0.5" width="129" height="29" rx="9.5" stroke="#3FDA26"/>
<defs>
<clipPath id="clip0_845_329">
<rect width="130" height="30" rx="10" fill="white"/>
</clipPath>
</defs>
</svg>
